<?xml version="1.0" encoding="UTF-8" standalone="no"?><!DOCTYPE svg PUBLIC "-//W3C//DTD SVG 1.1//EN" "http://www.w3.org/Graphics/SVG/1.1/DTD/svg11.dtd"><svg width="100%" height="100%" viewBox="0 0 4267 4267" version="1.1" xmlns="http://www.w3.org/2000/svg" xmlns:xlink="http://www.w3.org/1999/xlink" xml:space="preserve" xmlns:serif="http://www.serif.com/" style="fill-rule:evenodd;clip-rule:evenodd;stroke-linejoin:round;stroke-miterlimit:2;"><g><path d="M413.909,1213.36c0,650.727 1.911,750.104 14.334,750.104c7.644,-0 36.31,-43.955 66.888,-105.11c42.044,-82.177 61.155,-108.933 88.866,-126.132c77.399,-48.733 187.287,-15.289 229.331,68.799c10.511,21.977 21.022,36.311 23.888,31.533c2.867,-3.822 21.022,-71.666 41.089,-150.021c48.733,-192.065 85.044,-234.109 194.931,-223.598l47.778,4.778l-0,-322.019l592.438,-0c649.772,-0 665.061,0.955 812.215,58.288c142.376,54.466 314.375,189.198 398.463,311.508l34.399,50.644l771.126,0l-20.066,-55.421c-185.376,-507.395 -623.972,-891.525 -1146.66,-1003.32c-172.954,-37.266 -247.486,-40.133 -1212.59,-40.133l-936.436,0l0,750.104Z" style="fill:#002a4e;fill-rule:nonzero;"/><path d="M1703.9,1390.13l-0,143.332l440.507,-0l22.933,-23.889c13.378,-12.422 23.889,-32.488 23.889,-42.999c-0,-22.933 -17.2,-58.289 -32.489,-68.8c-5.733,-3.822 -110.843,-7.644 -232.198,-7.644l-222.642,-0Z" style="fill:#002a4e;fill-rule:nonzero;"/><path d="M1021.64,1565c-15.289,11.467 -98.421,299.086 -160.532,553.261c-5.733,25.8 -14.333,45.867 -18.155,45.867c-3.822,-0 -32.489,-76.444 -63.066,-169.132c-46.822,-142.377 -60.2,-171.999 -80.266,-183.465c-20.067,-11.467 -30.578,-11.467 -53.511,-1.911c-21.977,8.6 -38.222,33.444 -84.088,125.176l-56.377,114.666l-197.798,-0c-185.376,-0 -198.754,0.956 -222.643,20.066c-32.488,25.8 -34.399,75.489 -3.822,104.155c20.067,18.155 32.489,19.111 262.775,19.111l241.754,-0l28.666,-44.911c16.244,-24.844 28.667,-50.644 28.667,-57.333c-0,-42.999 24.844,10.511 81.221,175.821c35.355,104.155 68.799,196.843 73.577,206.398c21.022,39.177 90.777,39.177 111.799,-0.956c4.778,-9.555 37.266,-125.176 72.621,-255.13c60.2,-228.376 66.889,-251.309 75.489,-242.709c3.822,3.822 44.91,190.154 110.843,495.928c21.978,102.244 43.955,197.798 49.688,212.132c19.111,50.644 101.288,53.51 122.31,5.733c7.645,-17.2 143.332,-637.349 143.332,-654.549c0,-0.956 4.778,-2.867 9.556,-2.867c5.733,0 9.555,4.778 9.555,10.511c0,27.711 32.489,117.532 48.733,133.777c17.2,17.199 52.555,18.155 1250.81,18.155l1233.61,-0l22.933,-23.889c13.377,-12.422 23.888,-34.399 23.888,-47.777c0,-13.378 -10.511,-35.355 -23.888,-47.777l-22.933,-23.889l-2388.87,-0l-10.511,-41.089c-5.734,-21.977 -19.111,-67.843 -28.667,-102.243c-9.555,-34.4 -26.755,-98.421 -38.222,-143.332c-21.022,-86.955 -42.044,-114.666 -83.132,-114.666c-36.311,0 -58.288,16.245 -67.844,50.644c-4.778,16.245 -35.355,157.666 -68.799,312.464c-33.444,154.799 -62.111,283.797 -64.022,285.708c-1.911,1.912 -4.778,1.912 -7.644,0c-3.822,-4.777 -112.755,-509.306 -139.51,-647.86c-6.689,-33.444 -20.066,-69.755 -29.622,-79.31c-20.066,-20.067 -63.066,-22.933 -87.91,-4.778Z" style="fill:#002a4e;fill-rule:nonzero;"/><path d="M2724.42,1721.71l-1009.06,2.866l-3.823,67.844c-1.911,37.266 -0.955,69.755 0.956,71.666c6.689,6.689 2031.49,3.822 2064.94,-1.911c29.621,-6.689 30.577,-8.6 24.844,-41.089c-13.378,-80.266 -24.844,-106.065 -46.822,-104.154c-11.467,1.911 -475.862,3.822 -1031.04,4.778Z" style="fill:#002a4e;fill-rule:nonzero;"/><path d="M516.153,2276.88l-102.244,2.867l1.911,756.792l2.867,756.793l945.991,0c1023.39,0 1036.77,-0.956 1243.17,-52.555c193.976,-48.733 397.507,-144.288 553.261,-260.864c155.754,-115.621 326.797,-306.731 426.174,-476.818c39.177,-65.932 122.31,-244.62 136.643,-292.397l6.689,-21.022l-385.085,0l-385.086,0.956l-23.888,38.221c-61.155,99.377 -237.931,246.531 -366.93,304.82c-141.421,64.021 -167.221,67.843 -565.683,77.399c-200.665,4.778 -480.64,7.644 -621.106,6.689l-257.042,-2.867l-4.777,-229.331c-4.778,-217.865 -6.689,-236.02 -37.267,-369.796c-18.155,-77.4 -35.355,-138.555 -39.177,-136.644c-3.822,2.867 -10.511,21.022 -13.378,40.133c-9.555,51.6 -49.688,128.999 -76.443,148.11c-12.422,9.556 -42.044,21.978 -65.933,28.666c-36.311,9.556 -49.688,8.6 -86.955,-5.733c-59.244,-22.933 -84.088,-58.288 -130.91,-187.287c-21.022,-59.244 -41.088,-112.754 -44.91,-118.488c-3.823,-6.688 -43,-9.555 -109.888,-7.644Z" style="fill:#002a4e;fill-rule:nonzero;"/><path d="M1703.9,2383.9l-0,143.332l1036.77,0c821.77,0 1038.68,-2.867 1041.55,-12.422c2.867,-5.733 10.511,-38.222 18.156,-71.666l13.377,-59.244l-2109.85,0Z" style="fill:#002a4e;fill-rule:nonzero;"/><path d="M1703.9,2718.34l-0,143.332l222.642,0c121.355,0 226.465,-3.822 232.198,-7.644c15.289,-10.511 32.489,-45.866 32.489,-68.799c-0,-10.511 -10.511,-30.578 -23.889,-43l-22.933,-23.889l-440.507,0Z" style="fill:#002a4e;fill-rule:nonzero;"/></g></svg>